<svg width="251" height="92" viewBox="0 0 251 92" fill="none" xmlns="http://www.w3.org/2000/svg">
<path d="M17.9775 0H232.774C242.696 0 250.752 8.05594 250.752 17.9775V73.8603C250.752 83.7818 242.696 91.8377 232.774 91.8377H17.9775C8.05594 91.8377 0 83.7818 0 73.8603V17.9775C0 8.05594 8.05594 0 17.9775 0Z" fill="black"/>
<path d="M22.9813 38.2446C21.5397 38.2446 20.3525 39.4318 20.3525 40.8734V53.7629C20.3525 55.2045 21.5397 56.3917 22.9813 56.3917C24.4229 56.3917 25.6101 55.2045 25.6101 53.7629V40.8734C25.6101 39.4318 24.5077 38.2446 22.9813 38.2446Z" fill="#3DDC84"/>
<path d="M64.5331 38.2446C63.0915 38.2446 61.9043 39.4318 61.9043 40.8734V53.7629C61.9043 55.2045 63.0915 56.3917 64.5331 56.3917C65.9747 56.3917 67.1619 55.2045 67.1619 53.7629V40.8734C67.2467 39.4318 65.9747 38.2446 64.5331 38.2446Z" fill="#3DDC84"/>
<path d="M51.558 22.0479L54.3563 16.7903L53.7627 16.4511L50.9644 21.7087C48.8444 20.6063 46.3852 20.0127 43.8412 20.0127C41.382 20.0127 39.0924 20.6063 37.0573 21.5391L34.3437 16.3663L33.7501 16.7055L36.4637 21.7935C31.5453 24.4223 28.2381 29.595 28.1533 35.6158H59.5291C59.4443 29.8494 56.2219 24.7615 51.558 22.0479ZM35.7005 29.595C34.8525 29.595 34.1741 28.9166 34.1741 28.0686C34.1741 27.2207 34.8525 26.5423 35.7005 26.5423C36.5485 26.5423 37.2269 27.2207 37.2269 28.0686C37.2269 28.9166 36.5485 29.595 35.7005 29.595ZM51.6428 29.595C50.7948 29.595 50.2012 28.9166 50.2012 28.0686C50.2012 27.2207 50.8796 26.5423 51.6428 26.5423C52.4059 26.5423 53.1691 27.2207 53.1691 28.0686C53.1691 28.9166 52.4059 29.595 51.6428 29.595Z" fill="#3DDC84"/>
<path d="M59.6145 38.2446H27.9844V62.0733C27.9844 64.278 29.7652 66.0588 31.9699 66.0588H36.2099V72.8428C36.2099 74.2844 37.3971 75.4716 38.8387 75.4716C40.2803 75.4716 41.4675 74.2844 41.4675 72.8428V66.0588H45.9618V72.8428C45.9618 74.2844 47.149 75.4716 48.5906 75.4716C50.0322 75.4716 51.2194 74.2844 51.2194 72.8428V66.0588H55.4594C57.6642 66.0588 59.4449 64.278 59.4449 62.0733L59.6145 38.2446Z" fill="#3DDC84"/>
<path d="M111.766 16.7903V23.4894H107.441V20.6062H85.8173V23.4894H81.6621V16.7903H95.1452C94.8908 16.0271 94.5516 15.2639 94.2972 14.6703L98.4524 13.7375C98.9612 14.6703 99.47 15.7727 99.7244 16.7903H111.766ZM90.142 34.5981H108.544V45.9613H104.304V44.6893H90.142V46.0461H85.9021V22.6414H107.272V32.3086H90.0572V34.5981H90.142ZM90.142 26.203V28.8318H103.201V26.203H90.142ZM90.142 38.1597V41.1277H104.304V38.1597H90.142Z" fill="#29E387"/>
<path d="M129.149 23.4894C129.064 24.8462 128.98 26.2877 128.81 27.6445H143.565C143.565 27.6445 143.565 28.9165 143.396 29.4253C142.802 38.7533 142.039 42.5692 140.597 44.0956C139.58 45.198 138.477 45.5372 136.866 45.7068C135.509 45.8764 133.22 45.7916 130.93 45.7068C130.845 44.5196 130.252 42.8236 129.488 41.6364C131.863 41.8908 134.237 41.8908 135.255 41.8908C136.018 41.8908 136.442 41.806 136.951 41.4668C137.884 40.7036 138.477 37.7357 138.986 31.5453H128.132C126.945 37.3117 124.401 42.654 118.21 46.3004C117.617 45.198 116.345 43.7564 115.242 42.9084C123.553 38.4988 124.146 30.7821 124.485 23.4894H115.836V19.419H130.421C129.828 18.0622 129.064 16.3662 128.386 15.0094L132.456 13.483C133.389 15.0094 134.407 17.1294 134.916 18.4014L132.541 19.419H146.703V23.4894H129.149Z" fill="#29E387"/>
<path d="M160.102 20.0974H164.257L175.79 46.8092H170.363L167.903 40.7036H156.286L153.827 46.8092H148.484L160.102 20.0974ZM166.123 36.6332L161.967 25.7789L157.812 36.6332H166.123Z" fill="#29E387"/>
<path d="M178.757 20.0974H187.746C189.018 20.0974 190.29 20.1822 191.477 20.4366C192.664 20.691 193.766 21.115 194.614 21.7086C195.547 22.3022 196.226 23.0654 196.819 24.083C197.328 25.1006 197.667 26.2878 197.667 27.8142C197.667 29.5101 197.413 30.8669 196.819 31.8845C196.226 32.9021 195.462 33.7501 194.445 34.2589C193.427 34.8525 192.325 35.1917 191.053 35.4461C189.781 35.7005 188.424 35.7853 186.982 35.7853H183.59V46.894H178.842V20.0974H178.757ZM186.389 31.7149C187.067 31.7149 187.746 31.7149 188.509 31.6301C189.272 31.5453 189.95 31.4605 190.544 31.2061C191.138 30.9517 191.646 30.6125 192.07 30.1037C192.494 29.5949 192.664 28.9165 192.664 27.9838C192.664 27.1358 192.494 26.4574 192.155 26.0334C191.816 25.6094 191.307 25.1854 190.798 24.931C190.205 24.6766 189.611 24.507 188.933 24.4222C188.254 24.3374 187.576 24.3374 186.982 24.3374H183.59V31.8845H186.389V31.7149Z" fill="#29E387"/>
<path d="M201.822 20.0974H206.571V31.4605H206.825L217.934 20.0974H224.379L211.913 32.4781L225.227 46.894H218.528L206.91 33.7501H206.656V46.894H201.822V20.0974Z" fill="#29E387"/>
<path d="M83.455 59.28V60.285H95.575V59.28H83.455ZM82.825 68.52V69.525H96.175V68.52H82.825ZM85.585 61.395C86.155 63.42 86.815 66.09 87.04 67.815L88.09 67.575C87.835 65.82 87.19 63.21 86.575 61.17L85.585 61.395ZM92.425 61.17C91.9 63.45 90.895 66.825 90.025 68.745L91.015 68.97C91.855 67.05 92.875 63.825 93.565 61.365L92.425 61.17ZM88.48 56.625C88.765 57.405 89.08 58.41 89.2 59.07L90.22 58.755C90.085 58.11 89.74 57.135 89.44 56.37L88.48 56.625ZM99.025 60.21V61.125H103.735V60.21H99.025ZM99.01 57.24V58.14H103.315V63.345H99.01V64.26H104.32V57.24H99.01ZM98.455 69.705C98.77 69.45 99.28 69.255 103.495 67.74C103.42 67.53 103.315 67.17 103.24 66.885L98.845 68.355L98.38 68.79L98.455 69.705ZM101.755 65.505C102.52 66.75 103.42 68.43 103.825 69.42L104.71 68.925C104.305 67.935 103.39 66.315 102.595 65.085L101.755 65.505ZM98.455 69.705C98.455 69.3 99.655 68.76 99.655 68.76V57.24H98.65V67.74C98.65 68.31 98.275 68.565 98.02 68.685C98.185 68.94 98.38 69.42 98.455 69.705ZM109.66 57.33V65.97C109.66 66.165 109.6 66.24 109.375 66.24C109.165 66.255 108.445 66.255 107.635 66.225C107.785 66.51 107.905 66.93 107.95 67.2C109.06 67.2 109.735 67.2 110.14 67.02C110.53 66.855 110.665 66.54 110.665 65.97V57.33H109.66ZM105.775 57.33V70.185H106.78V58.26H110.23V57.33H105.775ZM112.84 57.54V58.56H126.16V57.54H112.84ZM118.675 58.305V70.17H119.725V58.305H118.675ZM119.26 61.845C121.105 62.79 123.46 64.215 124.63 65.145L125.32 64.23C124.12 63.33 121.735 61.965 119.92 61.08L119.26 61.845ZM138.04 57.255C138.73 57.81 139.525 58.635 139.9 59.175L140.635 58.65C140.275 58.095 139.45 57.3 138.745 56.775L138.04 57.255ZM127.825 59.85V60.675H141.235V59.85H127.825ZM128.605 57.675V58.485H135.175V57.675H128.605ZM131.515 56.415V60.255H132.49V56.415H131.515ZM136.165 56.445C136.21 63.945 137.11 70.065 139.885 70.065C140.89 70.065 141.235 69.36 141.415 67.125C141.16 67.035 140.815 66.825 140.605 66.615C140.515 68.4 140.365 69.075 139.975 69.075C138.16 69.075 137.11 63.75 137.17 56.445H136.165ZM139.63 61.485C138.73 64.71 137.005 67.8 134.62 69.51C134.86 69.69 135.16 69.99 135.34 70.2C137.8 68.31 139.54 65.145 140.515 61.74L139.63 61.485ZM128.065 62.25V63.09H135.76V62.25H128.065ZM132.055 63.585V70.11H133V63.585H132.055ZM128.845 65.94C128.845 65.73 129.49 65.415 129.49 65.415V65.4C130.285 64.275 131.14 62.64 131.755 61.005L130.765 60.735C130.315 62.235 129.475 63.825 129.22 64.245C128.98 64.665 128.77 64.965 128.53 65.01C128.665 65.25 128.8 65.73 128.845 65.94ZM128.845 65.94C128.98 65.82 129.415 65.73 130.06 65.73H135.43L135.445 64.86H129.445L128.845 65.16V65.94ZM127.99 67.68L128.095 68.61C130.06 68.415 133.015 68.115 135.79 67.815L135.805 66.975C132.88 67.26 129.865 67.53 127.99 67.68Z" fill="#3DDC84"/>
</svg>
