<svg width="251" height="92" viewBox="0 0 251 92" fill="none" xmlns="http://www.w3.org/2000/svg">
<path d="M17.9775 0H232.774C242.696 0 250.752 8.05594 250.752 17.9775V73.8603C250.752 83.7818 242.696 91.8377 232.774 91.8377H17.9775C8.05594 91.8377 0 83.7818 0 73.8603V17.9775C0 8.05594 8.05594 0 17.9775 0Z" fill="black"/>
<path d="M63.5143 37.2927C61.3943 38.8191 59.9527 40.2606 59.1047 41.787C58.3415 43.3134 57.9175 44.9246 57.9175 46.7054C57.9175 48.0622 58.1719 49.3342 58.5959 50.5214C59.0199 51.6238 59.6983 52.7262 60.5463 53.8285C61.3943 54.8461 62.7511 55.8637 64.7014 56.8813C63.9383 59.0861 62.7511 61.3757 61.1399 63.6653C59.5287 65.9549 58.0871 67.6508 56.8151 68.5836C55.5431 69.5164 54.2711 70.0252 53.0839 70.0252C52.1511 70.0252 50.8791 69.686 49.268 69.0924L48.5048 68.838L47.4872 68.3292C46.6392 68.0748 45.6216 67.9052 44.604 67.9052C43.5864 67.9052 42.3144 68.1596 41.0424 68.5836L40.1096 68.9228L38.9224 69.4316C37.9896 69.7708 37.0568 70.0252 36.1241 70.0252C34.1737 70.0252 32.0537 68.6684 29.7641 65.8701C27.4745 63.0717 25.7785 60.1037 24.5913 56.8813C23.4041 53.6589 22.8105 50.4366 22.8105 47.1294C22.8105 42.8894 23.9977 39.4126 26.3721 36.6143C28.7465 33.8159 32.0537 32.3743 36.1241 32.3743C37.6504 32.3743 39.0072 32.6287 40.364 33.2223L41.2968 33.5615L42.2296 33.9855C43.0776 34.3247 43.756 34.4943 44.2648 34.4943C45.028 34.4943 45.7064 34.3247 46.4696 34.0703L47.7416 33.6463L48.6744 33.3071C50.116 32.7135 51.7271 32.4591 53.5079 32.4591C57.5783 32.4591 60.8855 34.0703 63.5143 37.2927ZM53.5079 18.552C53.5927 19.1456 53.5927 19.5696 53.5927 19.9088C53.5927 21.52 53.1687 23.216 52.1511 24.912C51.1335 26.6079 50.0312 28.0495 48.5048 28.9823C46.9784 29.9151 45.2824 30.4239 43.5016 30.4239C43.4168 29.8303 43.4168 29.3215 43.4168 29.0671C43.4168 27.7103 43.8408 26.2687 44.6888 24.7424C45.5368 23.216 46.6392 21.944 48.0808 20.8416C49.5224 19.7392 51.0487 19.0608 52.9143 18.8064C52.9143 18.7216 53.1687 18.6368 53.5079 18.552Z" fill="white"/>
<path d="M90.9902 20.7758H94.467L104.134 43.1629H99.5549L97.435 38.0749H87.7678L85.7326 43.1629H81.2383L90.9902 20.7758ZM96.0782 34.5981L92.6014 25.5246L89.1246 34.5981H96.0782Z" fill="white"/>
<path d="M106.254 27.9839H109.815V30.2734H109.9C110.409 29.3406 111.172 28.6622 112.105 28.2382C113.038 27.8143 114.055 27.6447 115.073 27.6447C116.26 27.6447 117.278 27.8143 118.211 28.2382C119.143 28.6622 119.907 29.171 120.585 29.9342C121.263 30.6126 121.772 31.4606 122.111 32.4782C122.451 33.411 122.62 34.5134 122.62 35.6158C122.62 36.7182 122.451 37.7358 122.111 38.7534C121.772 39.6862 121.263 40.5342 120.585 41.2974C119.907 41.9758 119.143 42.5694 118.295 42.9933C117.363 43.4173 116.43 43.5869 115.327 43.5869C114.649 43.5869 113.971 43.5021 113.462 43.3325C112.953 43.1629 112.444 42.9933 112.02 42.7389C111.596 42.4846 111.257 42.2302 110.918 41.9758C110.663 41.7214 110.409 41.467 110.155 41.2126H110.07V50.3709H106.254V27.9839ZM118.804 35.531C118.804 34.9374 118.719 34.3438 118.465 33.835C118.211 33.3262 117.956 32.8174 117.617 32.3934C117.193 31.9694 116.769 31.6302 116.175 31.3758C115.667 31.1214 114.988 31.0366 114.31 31.0366C113.631 31.0366 112.953 31.1214 112.444 31.3758C111.935 31.6302 111.427 31.9694 111.003 32.3934C110.579 32.8174 110.324 33.3262 110.155 33.835C109.985 34.3438 109.815 34.9374 109.815 35.531C109.815 36.1246 109.9 36.7182 110.155 37.227C110.324 37.7358 110.663 38.2446 111.003 38.6686C111.427 39.0926 111.851 39.4318 112.444 39.6862C112.953 39.9406 113.631 40.0254 114.31 40.0254C114.988 40.0254 115.667 39.9406 116.175 39.6862C116.684 39.4318 117.193 39.0926 117.617 38.6686C118.041 38.2446 118.295 37.7358 118.465 37.227C118.719 36.7182 118.804 36.1246 118.804 35.531Z" fill="white"/>
<path d="M126.182 27.9839H129.743V30.2734H129.828C130.337 29.3406 131.1 28.6622 132.033 28.2382C132.966 27.8143 133.983 27.6447 135.001 27.6447C136.188 27.6447 137.206 27.8143 138.138 28.2382C139.071 28.6622 139.834 29.171 140.513 29.9342C141.191 30.6126 141.7 31.4606 142.039 32.4782C142.378 33.411 142.548 34.5134 142.548 35.6158C142.548 36.7182 142.378 37.7358 142.039 38.7534C141.7 39.6862 141.191 40.5342 140.513 41.2974C139.834 41.9758 139.071 42.5694 138.223 42.9933C137.29 43.4173 136.358 43.5869 135.255 43.5869C134.577 43.5869 133.898 43.5021 133.39 43.3325C132.881 43.1629 132.372 42.9933 131.948 42.7389C131.524 42.4846 131.185 42.2302 130.846 41.9758C130.506 41.7214 130.337 41.467 130.082 41.2126H129.998V50.3709H126.182V27.9839ZM138.732 35.531C138.732 34.9374 138.647 34.3438 138.393 33.835C138.223 33.3262 137.884 32.8174 137.545 32.3934C137.121 31.9694 136.697 31.6302 136.103 31.3758C135.594 31.1214 134.916 31.0366 134.238 31.0366C133.559 31.0366 132.881 31.1214 132.372 31.3758C131.863 31.6302 131.354 31.9694 130.93 32.3934C130.506 32.8174 130.252 33.3262 130.082 33.835C129.913 34.3438 129.743 34.9374 129.743 35.531C129.743 36.1246 129.828 36.7182 130.082 37.227C130.252 37.7358 130.591 38.2446 130.93 38.6686C131.354 39.0926 131.778 39.4318 132.372 39.6862C132.881 39.9406 133.559 40.0254 134.238 40.0254C134.916 40.0254 135.594 39.9406 136.103 39.6862C136.612 39.4318 137.121 39.0926 137.545 38.6686C137.969 38.2446 138.223 37.7358 138.393 37.227C138.647 36.7182 138.732 36.1246 138.732 35.531Z" fill="white"/>
<path d="M166.716 25.6095C166.292 25.0159 165.699 24.5919 165.02 24.2527C164.342 23.9135 163.579 23.8287 162.815 23.8287C162.391 23.8287 161.883 23.9135 161.459 23.9983C161.035 24.0831 160.611 24.2527 160.271 24.5071C159.932 24.7615 159.678 25.0159 159.423 25.4399C159.254 25.7791 159.084 26.2878 159.084 26.7118C159.084 27.475 159.339 28.0686 159.847 28.4078C160.356 28.8318 161.035 29.171 161.798 29.4254C162.561 29.6798 163.409 30.019 164.342 30.2734C165.275 30.5278 166.123 30.9518 166.886 31.3758C167.649 31.7998 168.327 32.4782 168.836 33.3262C169.345 34.0894 169.599 35.1918 169.599 36.5486C169.599 37.7358 169.345 38.8382 168.921 39.6862C168.497 40.6189 167.903 41.2973 167.14 41.8909C166.377 42.4845 165.529 42.9085 164.511 43.2477C163.494 43.5021 162.476 43.6717 161.374 43.6717C160.017 43.6717 158.66 43.4173 157.388 42.9933C156.116 42.5693 155.014 41.7213 154.081 40.6189L157.049 37.7358C157.558 38.499 158.151 39.0078 158.999 39.4318C159.763 39.8558 160.611 40.0254 161.543 40.0254C161.967 40.0254 162.476 39.9405 162.9 39.8558C163.324 39.771 163.748 39.5166 164.172 39.2622C164.596 39.0078 164.851 38.6686 165.105 38.3294C165.359 37.9054 165.444 37.4814 165.444 36.9726C165.444 36.1246 165.19 35.531 164.681 35.107C164.172 34.683 163.494 34.259 162.731 34.0046C161.967 33.6654 161.119 33.411 160.187 33.1566C159.254 32.9022 158.406 32.4782 157.643 32.0542C156.879 31.5454 156.201 30.9518 155.692 30.1886C155.183 29.4254 154.929 28.323 154.929 27.051C154.929 25.8639 155.183 24.9311 155.607 24.0831C156.031 23.2351 156.71 22.5567 157.473 21.9631C158.236 21.3695 159.084 21.0303 160.102 20.6911C161.119 20.4367 162.137 20.2671 163.155 20.2671C164.342 20.2671 165.444 20.4367 166.547 20.7759C167.649 21.1151 168.667 21.7087 169.515 22.5567L166.716 25.6095Z" fill="white"/>
<path d="M171.719 31.2062V27.9838H174.856V23.5742H178.672V27.9838H182.827V31.2062H178.672V37.8205C178.672 38.5837 178.842 39.1773 179.096 39.6013C179.351 40.0253 179.944 40.2797 180.792 40.2797C181.131 40.2797 181.471 40.2797 181.895 40.1949C182.319 40.1101 182.573 40.0253 182.827 39.8557V43.0781C182.403 43.2477 181.979 43.4173 181.386 43.5021C180.792 43.5869 180.283 43.5869 179.859 43.5869C178.842 43.5869 177.994 43.5021 177.4 43.2477C176.722 42.9933 176.213 42.6541 175.874 42.2301C175.535 41.8061 175.28 41.2125 175.111 40.5341C174.941 39.8557 174.941 39.0925 174.941 38.1597V31.2062H171.719Z" fill="white"/>
<path d="M185.032 35.5311C185.032 34.3439 185.287 33.2415 185.711 32.2239C186.135 31.2063 186.728 30.4431 187.491 29.6799C188.255 28.9167 189.103 28.4079 190.12 28.0688C191.138 27.7296 192.24 27.4752 193.343 27.4752C194.445 27.4752 195.547 27.6448 196.565 28.0688C197.583 28.4079 198.431 29.0015 199.194 29.6799C199.957 30.3583 200.551 31.2063 200.975 32.2239C201.399 33.2415 201.653 34.2591 201.653 35.5311C201.653 36.7183 201.399 37.8207 200.975 38.8383C200.551 39.8559 199.957 40.6191 199.194 41.3823C198.431 42.1455 197.583 42.6543 196.565 42.9934C195.547 43.3326 194.445 43.587 193.343 43.587C192.24 43.587 191.138 43.4174 190.12 42.9934C189.103 42.5695 188.255 42.0607 187.491 41.3823C186.728 40.7039 186.135 39.8559 185.711 38.8383C185.287 37.8207 185.032 36.8031 185.032 35.5311ZM188.848 35.5311C188.848 36.1247 188.933 36.7183 189.187 37.2271C189.357 37.7359 189.696 38.2447 190.035 38.6687C190.459 39.0927 190.883 39.4319 191.477 39.6863C191.986 39.9407 192.664 40.0255 193.343 40.0255C194.021 40.0255 194.699 39.9407 195.208 39.6863C195.717 39.4319 196.226 39.0927 196.65 38.6687C197.074 38.2447 197.328 37.7359 197.498 37.2271C197.667 36.7183 197.837 36.1247 197.837 35.5311C197.837 34.9375 197.752 34.3439 197.498 33.8351C197.328 33.3263 196.989 32.8175 196.65 32.3935C196.226 31.9695 195.802 31.6303 195.208 31.3759C194.699 31.1215 194.021 31.0367 193.343 31.0367C192.664 31.0367 191.986 31.1215 191.477 31.3759C190.968 31.6303 190.459 31.9695 190.035 32.3935C189.611 32.8175 189.357 33.3263 189.187 33.8351C188.933 34.4287 188.848 34.9375 188.848 35.5311Z" fill="white"/>
<path d="M205.046 27.9838H208.862V30.3582H208.947C209.371 29.5102 209.964 28.8318 210.727 28.323C211.49 27.8142 212.423 27.5598 213.441 27.5598C213.695 27.5598 213.865 27.5598 214.119 27.6446C214.374 27.7294 214.543 27.7294 214.798 27.8142V31.4606C214.458 31.3758 214.204 31.291 213.865 31.291C213.526 31.2062 213.271 31.2062 212.932 31.2062C212.084 31.2062 211.321 31.3758 210.812 31.715C210.303 32.0542 209.879 32.3934 209.54 32.8174C209.286 33.2414 209.031 33.6654 208.947 34.0894C208.862 34.5134 208.777 34.8526 208.777 35.0222V43.1629H204.961V27.9838H205.046Z" fill="white"/>
<path d="M219.8 36.8877C219.885 37.9901 220.394 38.9229 221.157 39.5164C221.92 40.11 222.853 40.4492 223.871 40.4492C224.803 40.4492 225.651 40.2796 226.245 39.8556C226.923 39.4317 227.432 39.0077 227.941 38.4141L230.655 40.4492C229.807 41.5516 228.789 42.3148 227.687 42.8236C226.584 43.3324 225.482 43.502 224.21 43.502C223.107 43.502 222.005 43.3324 220.987 42.9084C219.97 42.4844 219.122 41.9756 218.359 41.2972C217.595 40.6188 217.002 39.7709 216.578 38.7533C216.154 37.7357 215.899 36.7181 215.899 35.4461C215.899 34.2589 216.154 33.1565 216.578 32.1389C217.002 31.1213 217.595 30.3581 218.359 29.5949C219.122 28.8317 219.97 28.3229 220.987 27.9837C222.005 27.6445 223.107 27.3901 224.21 27.3901C225.227 27.3901 226.245 27.5597 227.093 27.9837C227.941 28.3229 228.704 28.9165 229.298 29.5949C229.891 30.2733 230.4 31.1213 230.739 32.1389C231.079 33.1565 231.248 34.3437 231.248 35.7005V36.7181H219.8V36.8877ZM227.602 34.0893C227.602 32.9869 227.263 32.0541 226.584 31.4605C225.906 30.7821 224.973 30.5277 223.786 30.5277C222.683 30.5277 221.751 30.8669 221.072 31.5453C220.394 32.2237 219.97 33.0717 219.885 34.1741H227.602V34.0893Z" fill="white"/>
<path d="M82.9677 59.28V60.285H95.0877V59.28H82.9677ZM82.3377 68.52V69.525H95.6877V68.52H82.3377ZM85.0977 61.395C85.6677 63.42 86.3277 66.09 86.5527 67.815L87.6027 67.575C87.3477 65.82 86.7027 63.21 86.0877 61.17L85.0977 61.395ZM91.9377 61.17C91.4127 63.45 90.4077 66.825 89.5377 68.745L90.5277 68.97C91.3677 67.05 92.3877 63.825 93.0777 61.365L91.9377 61.17ZM87.9927 56.625C88.2777 57.405 88.5927 58.41 88.7127 59.07L89.7327 58.755C89.5977 58.11 89.2527 57.135 88.9527 56.37L87.9927 56.625ZM98.5377 60.21V61.125H103.248V60.21H98.5377ZM98.5227 57.24V58.14H102.828V63.345H98.5227V64.26H103.833V57.24H98.5227ZM97.9677 69.705C98.2827 69.45 98.7927 69.255 103.008 67.74C102.933 67.53 102.828 67.17 102.753 66.885L98.3577 68.355L97.8927 68.79L97.9677 69.705ZM101.268 65.505C102.033 66.75 102.933 68.43 103.338 69.42L104.223 68.925C103.818 67.935 102.903 66.315 102.108 65.085L101.268 65.505ZM97.9677 69.705C97.9677 69.3 99.1677 68.76 99.1677 68.76V57.24H98.1627V67.74C98.1627 68.31 97.7877 68.565 97.5327 68.685C97.6977 68.94 97.8927 69.42 97.9677 69.705ZM109.173 57.33V65.97C109.173 66.165 109.113 66.24 108.888 66.24C108.678 66.255 107.958 66.255 107.148 66.225C107.298 66.51 107.418 66.93 107.463 67.2C108.573 67.2 109.248 67.2 109.653 67.02C110.043 66.855 110.178 66.54 110.178 65.97V57.33H109.173ZM105.288 57.33V70.185H106.293V58.26H109.743V57.33H105.288ZM112.353 57.54V58.56H125.673V57.54H112.353ZM118.188 58.305V70.17H119.238V58.305H118.188ZM118.773 61.845C120.618 62.79 122.973 64.215 124.143 65.145L124.833 64.23C123.633 63.33 121.248 61.965 119.433 61.08L118.773 61.845ZM137.553 57.255C138.243 57.81 139.038 58.635 139.413 59.175L140.148 58.65C139.788 58.095 138.963 57.3 138.258 56.775L137.553 57.255ZM127.338 59.85V60.675H140.748V59.85H127.338ZM128.118 57.675V58.485H134.688V57.675H128.118ZM131.028 56.415V60.255H132.003V56.415H131.028ZM135.678 56.445C135.723 63.945 136.623 70.065 139.398 70.065C140.403 70.065 140.748 69.36 140.928 67.125C140.673 67.035 140.328 66.825 140.118 66.615C140.028 68.4 139.878 69.075 139.488 69.075C137.673 69.075 136.623 63.75 136.683 56.445H135.678ZM139.143 61.485C138.243 64.71 136.518 67.8 134.133 69.51C134.373 69.69 134.673 69.99 134.853 70.2C137.313 68.31 139.053 65.145 140.028 61.74L139.143 61.485ZM127.578 62.25V63.09H135.273V62.25H127.578ZM131.568 63.585V70.11H132.513V63.585H131.568ZM128.358 65.94C128.358 65.73 129.003 65.415 129.003 65.415V65.4C129.798 64.275 130.653 62.64 131.268 61.005L130.278 60.735C129.828 62.235 128.988 63.825 128.733 64.245C128.493 64.665 128.283 64.965 128.043 65.01C128.178 65.25 128.313 65.73 128.358 65.94ZM128.358 65.94C128.493 65.82 128.928 65.73 129.573 65.73H134.943L134.958 64.86H128.958L128.358 65.16V65.94ZM127.503 67.68L127.608 68.61C129.573 68.415 132.528 68.115 135.303 67.815L135.318 66.975C132.393 67.26 129.378 67.53 127.503 67.68Z" fill="white"/>
</svg>
