<svg width="68" height="133" viewBox="0 0 68 133" fill="none" xmlns="http://www.w3.org/2000/svg">
<path d="M57.5179 132.694H57.5184C59.9695 132.689 62.3187 131.713 64.0512 129.979C65.7837 128.245 66.7581 125.895 66.7607 123.444V123.444V10.0024V10.0021C66.7581 7.54957 65.7828 5.19813 64.0488 3.46366C62.3148 1.72919 59.9636 0.753284 57.511 0.75H57.5107L9.99756 0.75L9.99722 0.75C7.54485 0.753285 5.19394 1.72928 3.46031 3.46383C1.72669 5.19839 0.751969 7.54984 0.75 10.0022V10.0024L0.75 123.444L0.75 123.444C0.752626 125.896 1.72763 128.247 3.46118 129.981C5.19474 131.715 7.54528 132.691 9.99722 132.694H9.99756H57.5179ZM6.50363 6.50446C7.43022 5.577 8.68675 5.05483 9.99777 5.05233C9.99785 5.05233 9.99793 5.05233 9.99802 5.05233H57.5103C57.5104 5.05233 57.5106 5.05233 57.5107 5.05233C58.8221 5.05425 60.0792 5.57618 61.0062 6.50369C61.9334 7.43127 62.4548 8.68872 62.456 10.0002V123.441C62.4541 124.752 61.9325 126.009 61.0054 126.936C60.0783 127.863 58.8214 128.385 57.5103 128.387H9.9979C8.68705 128.385 7.43044 127.863 6.50373 126.936C5.57703 126.009 5.05591 124.752 5.05469 123.441V10.0002C5.05591 8.68912 5.57697 7.43198 6.50363 6.50446Z" fill="#FF4521" stroke="#FF4521" stroke-width="0.5"/>
<path d="M2.90971 119.307H64.6154L64.6157 14.3817V14.1317H64.6155H2.90971C2.33886 14.1317 1.79139 14.3585 1.38775 14.7621C0.984106 15.1657 0.757324 15.7132 0.757324 16.284V117.155C0.757324 117.726 0.984099 118.273 1.38775 118.677C1.79139 119.081 2.33887 119.307 2.90971 119.307ZM62.4633 18.4364V115.005H5.06205V18.4364H62.4633Z" fill="#FF4521" stroke="#FF4521" stroke-width="0.5"/>
<path d="M31.7517 11.5029H35.7737C36.3442 11.5029 36.8914 11.2762 37.2948 10.8728C37.6982 10.4694 37.9249 9.92222 37.9249 9.3517C37.9249 8.78118 37.6982 8.23401 37.2948 7.83059C36.8914 7.42716 36.3442 7.20053 35.7737 7.20053H31.7517C31.1812 7.20053 30.6341 7.42717 30.2306 7.83059C29.8272 8.23401 29.6006 8.78118 29.6006 9.3517C29.6006 9.92222 29.8272 10.4694 30.2306 10.8728C30.6341 11.2762 31.1812 11.5029 31.7517 11.5029Z" fill="#FF4521" stroke="#FF4521" stroke-width="0.5"/>
<path d="M27.3242 125.98H40.199C40.7698 125.98 41.3172 125.754 41.7209 125.35C42.1245 124.946 42.3513 124.399 42.3513 123.828C42.3513 123.257 42.1245 122.71 41.7209 122.306C41.3172 121.902 40.7698 121.676 40.199 121.676H27.3242C26.7534 121.676 26.2059 121.902 25.8023 122.306C25.3987 122.71 25.1719 123.257 25.1719 123.828C25.1719 124.399 25.3986 124.946 25.8023 125.35C26.206 125.754 26.7534 125.98 27.3242 125.98Z" fill="#FF4521" stroke="#FF4521" stroke-width="0.5"/>
</svg>
