<svg width="120" height="118" viewBox="0 0 120 118" fill="none" xmlns="http://www.w3.org/2000/svg">
<path d="M106.742 0H12.8049C9.25678 0.169995 5.92016 1.73686 3.52326 4.35844C1.12636 6.98002 -0.135996 10.4434 0.0117538 13.9924V62.8808C-0.136666 66.4303 1.12538 69.8942 3.52235 72.5163C5.91932 75.1384 9.25634 76.7057 12.8049 76.8757H106.742C110.29 76.7057 113.627 75.1384 116.024 72.5163C118.421 69.8942 119.683 66.4303 119.535 62.8808V13.9924C119.683 10.4434 118.42 6.98002 116.023 4.35844C113.626 1.73686 110.29 0.169995 106.742 0ZM4.57363 13.9924C4.42734 11.6531 5.20965 9.35049 6.75074 7.58441C8.29183 5.81834 10.4673 4.73134 12.8049 4.55946H16.2368V7.1211C16.2368 13.4188 11.8603 18.5421 6.48241 18.5421H4.57363V13.9924ZM16.2394 72.3162H12.8074C10.4698 72.1443 8.29424 71.0573 6.75315 69.2912C5.21206 67.5252 4.42975 65.2226 4.57604 62.8832V58.3336H6.48739C11.8653 58.3336 16.2418 63.4568 16.2418 69.7546L16.2394 72.3162ZM114.978 62.8832C115.124 65.223 114.341 67.526 112.8 69.2922C111.258 71.0583 109.082 72.1449 106.744 72.3162H103.312V69.7546C103.312 63.4593 107.686 58.3336 113.064 58.3336H114.975L114.978 62.8832ZM114.978 53.7741H113.066C105.174 53.7741 98.7525 60.9447 98.7525 69.7546V72.3162H20.7963V69.7546C20.7963 60.9422 14.3675 53.7741 6.48241 53.7741H4.57363V23.1139H6.48498C14.3775 23.1139 20.7989 15.9434 20.7989 7.13348V4.57184H98.7525V7.13348C98.7525 15.9458 105.181 23.1139 113.066 23.1139H114.978V53.7741ZM114.978 18.5421H113.066C107.688 18.5421 103.315 13.4188 103.315 7.1211V4.55946H106.746C109.085 4.73072 111.261 5.81737 112.802 7.58351C114.344 9.34965 115.126 11.6527 114.98 13.9924L114.978 18.5421Z" fill="#FF4521"/>
<path d="M32.4227 40.4988C32.4222 41.3859 32.1587 42.2529 31.6654 42.9903C31.1721 43.7276 30.4714 44.3021 29.6516 44.6411C28.8318 44.9802 27.9299 45.0685 27.0599 44.895C26.1899 44.7214 25.391 44.2938 24.764 43.6662C24.1371 43.0386 23.7104 42.2391 23.5378 41.369C23.3653 40.4988 23.4546 39.597 23.7945 38.7776C24.1345 37.9582 24.7097 37.258 25.4475 36.7656C26.1854 36.2732 27.0528 36.0105 27.9399 36.011C29.1291 36.013 30.2689 36.4866 31.1093 37.3279C31.9497 38.1692 32.422 39.3096 32.4227 40.4988Z" fill="#FF4521"/>
<path d="M96.0972 40.4988C96.0967 41.3858 95.833 42.2527 95.3399 42.99C94.8467 43.7272 94.1463 44.3017 93.3267 44.6408C92.507 44.9799 91.605 45.0685 90.7351 44.8951C89.8652 44.7218 89.0664 44.2943 88.4394 43.667C87.8124 43.0396 87.3853 42.2405 87.2125 41.3705C87.0396 40.5005 87.1286 39.5987 87.4681 38.7793C87.8077 37.9598 88.3825 37.2595 89.12 36.7668C89.8576 36.2741 90.725 36.011 91.612 36.011C92.8016 36.0123 93.9418 36.4856 94.7827 37.327C95.6236 38.1684 96.0965 39.3092 96.0972 40.4988Z" fill="#FF4521"/>
<path d="M72.3527 51.121C72.0305 53.6803 70.8181 56.0445 68.9281 57.7998C67.0381 59.5551 64.5908 60.5897 62.0148 60.7221V64.5596C62.0148 65.1649 61.7743 65.7454 61.3463 66.1734C60.9183 66.6014 60.3378 66.8418 59.7325 66.8418C59.1272 66.8418 58.5468 66.6014 58.1188 66.1734C57.6908 65.7454 57.4504 65.1649 57.4504 64.5596V60.5886C54.9794 59.9951 52.7135 58.7477 50.8907 56.977C49.0678 55.2064 47.7552 52.9778 47.0902 50.5251C47.0343 50.2267 47.0386 49.9203 47.1028 49.6236C47.167 49.327 47.2898 49.0461 47.464 48.7975C47.6381 48.549 47.8601 48.3378 48.117 48.1762C48.3739 48.0146 48.6605 47.9058 48.96 47.8564C49.2595 47.807 49.5658 47.818 49.861 47.8886C50.1562 47.9591 50.4343 48.0879 50.6791 48.2674C50.9238 48.4468 51.1303 48.6733 51.2864 48.9337C51.4424 49.194 51.5448 49.4829 51.5877 49.7833C52.1601 51.4414 53.164 52.9169 54.496 54.0582C55.8281 55.1994 57.4401 55.965 59.1663 56.2763C59.3517 56.2961 60.1553 56.3036 60.363 56.2962C64.7939 56.1256 67.3087 54.1722 67.8353 50.4831C68.2804 47.3652 66.997 46.2945 65.83 45.7134C65.3354 45.4662 64.1882 45.0656 62.9766 44.6452C56.6962 42.4644 50.9177 40.1723 49.1894 36.1395C48.6401 34.7821 48.3872 33.3229 48.4478 31.8598C48.5084 30.3967 48.8808 28.9635 49.5404 27.6561C50.3134 26.1893 51.41 24.9176 52.7469 23.9371C54.0839 22.9565 55.6263 22.2929 57.2575 21.9963L57.4504 21.9542V17.4442C57.4504 16.8389 57.6908 16.2585 58.1188 15.8305C58.5468 15.4025 59.1272 15.1619 59.7325 15.1619C60.3378 15.1619 60.9183 15.4025 61.3463 15.8305C61.7743 16.2585 62.0148 16.8389 62.0148 17.4442V21.7366C64.011 22.0777 65.864 22.9944 67.3465 24.3741C68.829 25.7538 69.8764 27.5364 70.3598 29.503C70.5084 30.0892 70.4179 30.7106 70.1084 31.2302C69.7989 31.7498 69.2955 32.1251 68.7093 32.2736C68.123 32.4222 67.5018 32.3317 66.9822 32.0222C66.4626 31.7127 66.0873 31.2093 65.9388 30.6231C65.7484 29.822 65.3918 29.0701 64.892 28.4158C64.3922 27.7615 63.7604 27.2196 63.0376 26.8253C62.3148 26.431 61.5171 26.1932 60.6964 26.1272C59.8757 26.0611 59.0503 26.1683 58.2738 26.442C57.2985 26.6049 56.3719 26.9842 55.5624 27.5519C54.7529 28.1197 54.0808 28.8617 53.5955 29.7232C53.2359 30.435 53.03 31.2145 52.9913 32.011C52.9525 32.8076 53.0817 33.6035 53.3705 34.3469C54.4486 36.8591 61.2112 39.2106 64.4627 40.3405C65.6183 40.7091 66.7524 41.1416 67.8599 41.6361C69.5661 42.4818 70.9376 43.8778 71.7528 45.5987C72.568 47.3197 72.7793 49.2652 72.3527 51.121Z" fill="#FF4521"/>
<path d="M27.7641 102.744V92.0525H14.0636V102.744H1.94775V107.309H14.0636V118H27.7543V107.309H117.589V102.744H27.7641ZM23.1997 113.435H18.6378V96.6219H23.2121L23.1997 113.435Z" fill="#FF4521"/>
</svg>
