<svg width="149" height="130" viewBox="0 0 149 130" fill="none" xmlns="http://www.w3.org/2000/svg">
<path d="M148.063 6.77672C148.064 6.29051 147.915 5.81601 147.637 5.41716C147.359 5.01827 146.965 4.71447 146.509 4.54673C146.053 4.37899 145.556 4.35542 145.086 4.47928C144.615 4.60313 144.195 4.86842 143.88 5.23922C139.169 10.789 129.681 14.2743 119.108 14.2743C112.789 14.2743 106.879 13.0204 102.159 10.8751C97.4354 8.72788 93.93 5.7001 92.3766 2.16902C92.1913 1.7471 91.8872 1.38817 91.5013 1.13617C91.1154 0.884137 90.6645 0.75 90.2036 0.75C89.7427 0.75 89.2918 0.884139 88.9059 1.13617C88.5201 1.38817 88.2159 1.7471 88.0307 2.16902C86.4773 5.70011 82.9724 8.72789 78.2491 10.8751C73.5301 13.0204 67.6202 14.2743 61.302 14.2743C50.7236 14.2743 41.2431 10.789 36.5294 5.23909C36.2149 4.86836 35.7942 4.60312 35.3241 4.47928C34.8539 4.35542 34.3571 4.37899 33.9007 4.54673C33.4444 4.71447 33.0506 5.01827 32.7725 5.41715C32.4946 5.81594 32.3458 6.29033 32.3463 6.77645C32.3463 11.8418 32.3105 27.5282 32.2842 32.5958L32.2828 32.8587L32.5454 32.8469C33.0111 32.8259 33.4318 32.4894 33.7947 32.1032C34.1311 31.7453 34.4655 31.2907 34.7868 30.854C34.8215 30.8068 34.8561 30.7598 34.8906 30.7131C35.2506 30.225 35.5911 29.7773 35.92 29.4769C36.2581 29.1681 36.5074 29.0842 36.7079 29.1496L37.0337 29.2559L37.0355 28.9133C37.0538 25.421 37.0788 16.0546 37.0871 12.0923C44.2546 16.8298 52.7093 19.2508 61.3054 19.0207C73.6486 19.0199 84.8223 14.5258 90.2012 7.66863C95.5823 14.5327 106.756 19.0199 119.097 19.0207C127.693 19.25 136.148 16.8291 143.315 12.0922C143.329 18.3571 143.358 24.6243 143.403 30.8937L143.403 30.8991C143.451 38.9246 143.498 46.9469 143.498 54.9595C143.498 77.1809 131.42 98.201 110.879 113.378L110.639 113.556L110.856 113.761C111.878 114.727 112.712 115.874 113.314 117.145L113.445 117.419L113.689 117.239C135.438 101.199 148.25 78.7633 148.25 54.9595C148.251 49.1649 148.221 43.3661 148.19 37.5663C148.178 35.3332 148.166 33.1 148.156 30.8668L148.156 30.8665L148.15 29.7197C148.107 22.0699 148.063 14.4211 148.063 6.77672ZM148.063 6.77672L147.813 6.77645M148.063 6.77672C148.063 6.77663 148.063 6.77654 148.063 6.77645H147.813M147.813 6.77645C147.814 6.34146 147.681 5.91696 147.432 5.56011C147.183 5.20325 146.831 4.93146 146.423 4.78138C146.014 4.63131 145.57 4.61022 145.149 4.72103C144.729 4.83184 144.352 5.06918 144.071 5.40092M147.813 6.77645C147.813 14.4214 147.857 22.0708 147.9 29.7203L144.071 5.40092M144.071 5.40092C139.294 11.0279 129.721 14.5243 119.108 14.5243C106.409 14.5243 95.3219 9.48494 92.1477 2.26969C91.982 1.89214 91.7099 1.57096 91.3646 1.34548C91.0194 1.12001 90.616 1 90.2036 1C89.7913 1 89.3878 1.12001 89.0426 1.34548C88.6974 1.57096 88.4253 1.89214 88.2595 2.26969L144.071 5.40092Z" fill="#FF4521" stroke="#FF4521" stroke-width="0.5"/>
<path d="M16.8965 114.771H16.8964L16.8966 114.777C16.912 115.386 17.1682 115.963 17.6089 116.383C18.0481 116.801 18.6349 117.028 19.2411 117.015C19.8463 117.028 20.4323 116.802 20.8714 116.384L20.6993 116.203L20.8714 116.384C21.312 115.966 21.5687 115.39 21.5856 114.783L21.5857 114.783V114.776V72.7048H21.586L21.5854 72.6928C21.5566 72.0905 21.2971 71.5222 20.8606 71.106C20.424 70.6898 19.8441 70.4579 19.2411 70.4579C18.6381 70.4579 18.0581 70.6898 17.6216 71.106C17.1851 71.5222 16.9255 72.0905 16.8968 72.6928L16.8965 72.6928V72.7048V114.771Z" fill="#FF4521" stroke="#FF4521" stroke-width="0.5"/>
<path d="M98.5323 72.7998V72.7999L98.5407 72.7997C99.1491 72.7791 99.7258 72.523 100.149 72.0854C100.572 71.6477 100.809 71.0626 100.809 70.4539C100.809 69.8451 100.572 69.2603 100.149 68.8226C99.7258 68.385 99.1491 68.1289 98.5407 68.1084V68.1082H98.5323H10.8172V68.1081L10.8088 68.1084C10.2004 68.1289 9.62379 68.385 9.20066 68.8226C8.77755 69.2603 8.54102 69.8451 8.54102 70.4539C8.54102 71.0626 8.77752 71.6477 9.20066 72.0854C9.62379 72.523 10.2004 72.7791 10.8088 72.7997L10.8088 72.7998H10.8172H98.5323Z" fill="#FF4521" stroke="#FF4521" stroke-width="0.5"/>
<path d="M11.7686 61.8847C11.2448 61.8856 10.7357 61.7111 10.3227 61.389C9.90962 61.0669 9.61635 60.6156 9.4896 60.1074C9.36285 59.5992 9.40995 59.0633 9.62336 58.585C9.83676 58.1067 10.2042 57.7134 10.6671 57.4683L53.5736 34.6502C53.5737 34.6501 53.5737 34.6501 53.5737 34.6501C53.9128 34.4697 54.291 34.3754 54.6751 34.3754C55.0592 34.3754 55.4374 34.4697 55.7765 34.6502L98.6855 57.4683C98.6855 57.4683 98.6855 57.4683 98.6856 57.4683L98.6858 57.4684L98.5685 57.6892C98.982 57.9082 99.3102 58.2595 99.5009 58.6869C99.6916 59.1142 99.7336 59.5929 99.6204 60.0469C99.5072 60.501 99.2451 60.9041 98.8761 61.1918C98.5071 61.4796 98.0524 61.6355 97.5844 61.6347L11.7686 61.8847ZM11.7686 61.8847H97.584H11.7686ZM88.1867 57.1931H21.1685L54.6822 39.3765L88.1867 57.1931Z" fill="#FF4521" stroke="#FF4521" stroke-width="0.5"/>
<path d="M13.1485 118.699H96.2039C96.826 118.699 97.4227 118.452 97.8626 118.012C98.3025 117.572 98.5497 116.976 98.5497 116.353C98.5497 115.731 98.3025 115.135 97.8626 114.695C97.4227 114.255 96.826 114.008 96.2039 114.008H13.1485C12.5264 114.008 11.9297 114.255 11.4898 114.695C11.0499 115.135 10.8027 115.731 10.8027 116.353C10.8027 116.976 11.0499 117.572 11.4898 118.012C11.9297 118.452 12.5264 118.699 13.1485 118.699Z" fill="#FF4521" stroke="#FF4521" stroke-width="0.5"/>
<path d="M106.325 129.595V129.595L106.334 129.595C106.942 129.574 107.519 129.318 107.942 128.88C108.365 128.443 108.602 127.858 108.602 127.249C108.602 126.64 108.365 126.055 107.942 125.618C107.519 125.18 106.942 124.924 106.334 124.903V124.903H106.325H3.02622V124.903L3.01779 124.903C2.40931 124.924 1.83272 125.18 1.40965 125.618C0.986535 126.055 0.75 126.64 0.75 127.249C0.75 127.858 0.986535 128.443 1.40965 128.88C1.83278 129.318 2.4094 129.574 3.01779 129.595L3.01778 129.595H3.02622H106.325Z" fill="#FF4521" stroke="#FF4521" stroke-width="0.5"/>
<path d="M27.5723 114.771H27.5722L27.5723 114.777C27.5878 115.386 27.844 115.963 28.2847 116.383C28.7239 116.801 29.3107 117.028 29.9168 117.015C30.5221 117.028 31.1081 116.802 31.5472 116.384L31.375 116.203L31.5472 116.384C31.9877 115.966 32.2445 115.39 32.2614 114.783L32.2615 114.783V114.776V72.7048H32.2617L32.2612 72.6928C32.2324 72.0905 31.9729 71.5222 31.5364 71.106C31.0998 70.6898 30.5199 70.4579 29.9169 70.4579C29.3139 70.4579 28.7339 70.6898 28.2974 71.106C27.8609 71.5222 27.6013 72.0905 27.5726 72.6928L27.5723 72.6928V72.7048V114.771Z" fill="#FF4521" stroke="#FF4521" stroke-width="0.5"/>
<path d="M75.4902 114.771H75.4902L75.4903 114.777C75.5058 115.386 75.762 115.963 76.2026 116.383C76.6419 116.801 77.2286 117.028 77.8348 117.015C78.4401 117.028 79.0261 116.802 79.4652 116.384L79.293 116.203L79.4652 116.384C79.9057 115.966 80.1625 115.39 80.1793 114.783L80.1794 114.783V114.776V72.7048H80.1797L80.1792 72.6928C80.1504 72.0905 79.8908 71.5222 79.4543 71.106C79.0178 70.6898 78.4379 70.4579 77.8348 70.4579C77.2318 70.4579 76.6519 70.6898 76.2153 71.106C75.7788 71.5222 75.5193 72.0905 75.4905 72.6928L75.4902 72.6928V72.7048V114.771Z" fill="#FF4521" stroke="#FF4521" stroke-width="0.5"/>
<path d="M86.166 114.771H86.1659L86.1661 114.777C86.1815 115.386 86.4377 115.963 86.8784 116.383C87.3176 116.801 87.9044 117.028 88.5106 117.015C89.1159 117.028 89.7019 116.802 90.141 116.384L89.9688 116.203L90.141 116.384C90.5815 115.966 90.8383 115.39 90.8551 114.783L90.8552 114.783V114.776V72.7048H90.8555L90.8549 72.6928C90.8261 72.0905 90.5666 71.5222 90.1301 71.106C89.6936 70.6898 89.1136 70.4579 88.5106 70.4579C87.9076 70.4579 87.3277 70.6898 86.8911 71.106C86.4546 71.5222 86.1951 72.0905 86.1663 72.6928L86.166 72.6928V72.7048V114.771Z" fill="#FF4521" stroke="#FF4521" stroke-width="0.5"/>
<path d="M55.582 84.566V84.5657V80.5098C55.5911 80.2509 55.5482 79.9929 55.4559 79.7508C55.3629 79.5072 55.2218 79.2849 55.0409 79.0971C54.8601 78.9093 54.6432 78.76 54.4033 78.658C54.1634 78.556 53.9054 78.5034 53.6446 78.5034C53.3839 78.5034 53.1259 78.556 52.886 78.658C52.6461 78.76 52.4292 78.9093 52.2483 79.0971C52.0675 79.2849 51.9264 79.5073 51.8334 79.7508C51.7411 79.9929 51.6982 80.2509 51.7072 80.5098V84.5657C51.7072 85.0792 51.9113 85.5715 52.2744 85.9346C52.6375 86.2977 53.1299 86.5017 53.6434 86.5017C54.1571 86.5017 54.6497 86.298 55.0132 85.935C55.3767 85.572 55.5813 85.0797 55.582 84.566Z" fill="#FF4521" stroke="#FF4521" stroke-width="0.5"/>
<path d="M53.6431 108.231H53.6434C54.1572 108.231 54.6498 108.027 55.0132 107.664C55.3767 107.301 55.5813 106.809 55.582 106.295V106.295V102.239C55.5911 101.98 55.5482 101.722 55.4559 101.48C55.3629 101.236 55.2218 101.014 55.0409 100.826C54.8602 100.639 54.6434 100.489 54.4033 100.387C54.1634 100.285 53.9054 100.232 53.6446 100.232C53.3839 100.232 53.1259 100.285 52.886 100.387C52.6459 100.489 52.4291 100.639 52.2483 100.826C52.0675 101.014 51.9264 101.237 51.8334 101.48C51.7411 101.722 51.6982 101.98 51.7072 102.239L51.7072 106.295L51.7072 106.295C51.708 106.808 51.9121 107.3 52.275 107.663C52.638 108.026 53.1299 108.23 53.6431 108.231Z" fill="#FF4521" stroke="#FF4521" stroke-width="0.5"/>
<path d="M52.8752 103.444L52.8752 103.444C51.0709 103.173 49.2998 102.715 47.5908 102.076L47.2637 101.965C47.2634 101.965 47.2632 101.965 47.2629 101.965C47.0219 101.885 46.7991 101.758 46.6071 101.591C46.415 101.425 46.2574 101.222 46.1436 100.995C46.0297 100.767 45.9618 100.52 45.9437 100.266C45.9255 100.012 45.9576 99.7578 46.0379 99.5165C46.1181 99.2753 46.2452 99.052 46.4118 98.8597L46.6007 99.0234L46.4118 98.8597C46.5784 98.6674 46.7812 98.5101 47.0085 98.3964C47.2359 98.2825 47.4835 98.2146 47.7371 98.1965C47.9905 98.1784 48.245 98.2102 48.4862 98.2904C48.4864 98.2904 48.4866 98.2905 48.4868 98.2906L48.8222 98.4L48.8333 98.4037L48.8332 98.4039C50.2848 98.9535 51.7888 99.3533 53.3218 99.5969L53.3335 99.5988L53.345 99.6018C54.2008 99.8228 55.0995 99.8162 55.9519 99.5826C56.7985 99.3507 57.5702 98.9026 58.1917 98.2829C58.3223 98.1034 58.3998 97.8906 58.4151 97.6688C58.4303 97.4497 58.3841 97.2311 58.2821 97.0369C57.7285 96.3988 57.0243 95.9086 56.2333 95.6113C55.434 95.3109 54.5718 95.2172 53.7265 95.3385L53.7088 95.341H53.6909H53.6642C52.1138 95.5124 50.5459 95.261 49.1267 94.6132C47.7033 93.9634 46.483 92.9393 45.5962 91.6502L45.5882 91.6386L45.5816 91.6261C45.1439 90.8055 44.9425 89.8793 44.9998 88.9511C45.057 88.0228 45.3706 87.1287 45.9058 86.3681L45.9118 86.3596L45.9184 86.3517C46.9467 85.1205 48.2903 84.192 49.8055 83.6655C51.3185 83.1399 52.9457 83.035 54.5136 83.3616C56.331 83.6341 58.1147 84.0962 59.8357 84.7405L60.1308 84.8381C60.3785 84.912 60.6091 85.0346 60.8088 85.1991C61.0095 85.3644 61.1749 85.5684 61.2952 85.7989C61.4154 86.0294 61.4881 86.2818 61.5089 86.5409C61.5296 86.8001 61.498 87.0607 61.416 87.3074C61.3339 87.5542 61.2031 87.7818 61.0312 87.9769C60.8594 88.172 60.6501 88.3306 60.4157 88.4431C60.1813 88.5557 59.9266 88.6198 59.6671 88.6319C59.4088 88.644 59.1507 88.6044 58.908 88.5152L58.6036 88.4138L58.5944 88.4108L58.5944 88.4106C57.1251 87.8568 55.6034 87.453 54.0528 87.2054L54.0414 87.2036L54.0302 87.2008C53.1568 86.9772 52.24 86.9873 51.3717 87.23C50.5087 87.4711 49.7238 87.9337 49.0948 88.5716C48.9665 88.746 48.8894 88.9528 48.8724 89.1689C48.855 89.39 48.9012 89.6112 49.0057 89.8069L52.8752 103.444ZM52.8752 103.444L52.8839 103.445M52.8752 103.444L52.8839 103.445M52.8839 103.445C53.4008 103.505 53.9207 103.535 54.441 103.535C55.7558 103.633 57.0746 103.408 58.2829 102.88C59.4942 102.352 60.5578 101.535 61.3812 100.501L61.386 100.495L61.3904 100.489C61.9276 99.7214 62.2414 98.8202 62.2968 97.8852C62.3523 96.9501 62.1472 96.0178 61.7045 95.1924L61.6985 95.1812M52.8839 103.445L61.6985 95.1812M61.6985 95.1812L61.6913 95.1706M61.6985 95.1812L61.6913 95.1706M61.6913 95.1706C60.8243 93.8873 59.624 92.8645 58.2195 92.2121C56.8189 91.5615 55.2681 91.3037 53.7326 91.4661H53.6527C50.8003 91.4661 49.4034 90.5509 49.0058 89.807L61.6913 95.1706Z" fill="#FF4521" stroke="#FF4521" stroke-width="0.5"/>
</svg>
