<svg width="62" height="54" viewBox="0 0 62 54" fill="none" xmlns="http://www.w3.org/2000/svg">
<path d="M61.5377 12.7629C61.5187 9.39994 61.4987 6.0369 61.4987 2.6759C61.4989 2.49378 61.4432 2.31604 61.339 2.16663C61.2349 2.01721 61.0873 1.90341 60.9164 1.84058C60.7455 1.77774 60.5593 1.76891 60.3832 1.81531C60.2071 1.8617 60.0495 1.96108 59.9317 2.09998C57.9317 4.45598 53.9237 5.91992 49.4797 5.91992C44.1627 5.91992 39.5207 3.80994 38.1917 0.78894C38.1223 0.630859 38.0084 0.496382 37.8638 0.401978C37.7192 0.307573 37.5503 0.257324 37.3777 0.257324C37.205 0.257324 37.0361 0.307573 36.8916 0.401978C36.747 0.496382 36.6331 0.630859 36.5637 0.78894C35.2347 3.80994 30.5937 5.91992 25.2767 5.91992C20.8307 5.91992 16.8257 4.45598 14.8247 2.09998C14.7069 1.96108 14.5493 1.8617 14.3732 1.81531C14.197 1.76891 14.0109 1.77774 13.84 1.84058C13.669 1.90341 13.5215 2.01721 13.4174 2.16663C13.3132 2.31604 13.2575 2.49378 13.2577 2.6759C13.2577 4.7969 13.2427 11.3649 13.2317 13.4869C13.8317 13.4599 14.4447 11.759 15.0117 11.944C15.0197 10.421 15.0307 6.22893 15.0337 4.70593C18.0514 6.74936 21.6336 7.79567 25.2767 7.69788C30.4907 7.69788 35.1847 5.77493 37.3767 2.87793C39.5697 5.77793 44.2637 7.69788 49.4767 7.69788C53.1198 7.79533 56.7019 6.74905 59.7197 4.70593C59.725 7.39393 59.7374 10.0829 59.7567 12.7729C59.7767 16.1339 59.7967 19.494 59.7967 22.85C59.7967 32.194 54.7177 41.0239 46.0967 47.3939C46.534 47.8073 46.8907 48.2983 47.1487 48.8419C56.2337 42.1419 61.5767 32.777 61.5767 22.85C61.5777 19.49 61.5527 16.1269 61.5377 12.7629Z" fill="#FF4521"/>
<path d="M7.66557 48.7279C7.4386 48.7333 7.21878 48.6484 7.05435 48.4918C6.88993 48.3353 6.79434 48.1199 6.78857 47.8929V30.2799C6.79934 30.0546 6.89644 29.842 7.05973 29.6863C7.22302 29.5306 7.43997 29.4438 7.66557 29.4438C7.89118 29.4438 8.10813 29.5306 8.27142 29.6863C8.43471 29.842 8.53181 30.0546 8.54257 30.2799V47.8949C8.53629 48.1215 8.44048 48.3364 8.27611 48.4926C8.11174 48.6487 7.89221 48.7333 7.66557 48.7279Z" fill="#FF4521"/>
<path d="M40.8647 30.215H4.13866C3.91106 30.2073 3.69535 30.1115 3.53706 29.9478C3.37877 29.784 3.29028 29.5651 3.29028 29.3374C3.29028 29.1097 3.37877 28.8909 3.53706 28.7272C3.69535 28.5634 3.91106 28.4676 4.13866 28.46H40.8647C41.0923 28.4676 41.308 28.5634 41.4663 28.7272C41.6245 28.8909 41.713 29.1097 41.713 29.3374C41.713 29.5651 41.6245 29.784 41.4663 29.9478C41.308 30.1115 41.0923 30.2073 40.8647 30.215Z" fill="#FF4521"/>
<path d="M40.4677 25.6449H4.53671C4.34079 25.6452 4.15038 25.58 3.99588 25.4595C3.84138 25.339 3.73168 25.1702 3.68427 24.9801C3.63686 24.79 3.65447 24.5896 3.7343 24.4106C3.81413 24.2317 3.95157 24.0846 4.12471 23.9929L22.0897 14.439C22.2166 14.3715 22.358 14.3362 22.5017 14.3362C22.6454 14.3362 22.7869 14.3715 22.9137 14.439L40.8797 23.9929C41.0529 24.0846 41.1903 24.2317 41.2701 24.4106C41.35 24.5896 41.3676 24.79 41.3202 24.9801C41.2727 25.1702 41.163 25.339 41.0085 25.4595C40.854 25.58 40.6636 25.6452 40.4677 25.6449ZM8.05271 23.8899H36.9527L22.5047 16.2069L8.05271 23.8899Z" fill="#FF4521"/>
<path d="M39.8898 49.4329H5.1148C4.88207 49.4329 4.65888 49.3405 4.49432 49.1759C4.32975 49.0113 4.2373 48.7881 4.2373 48.5554C4.2373 48.3227 4.32975 48.0995 4.49432 47.9349C4.65888 47.7704 4.88207 47.678 5.1148 47.678H39.8898C40.1225 47.678 40.3457 47.7704 40.5103 47.9349C40.6749 48.0995 40.7673 48.3227 40.7673 48.5554C40.7673 48.7881 40.6749 49.0113 40.5103 49.1759C40.3457 49.3405 40.1225 49.4329 39.8898 49.4329Z" fill="#FF4521"/>
<path d="M44.1277 53.9948H0.876694C0.649093 53.9871 0.433382 53.8913 0.275093 53.7275C0.116804 53.5638 0.0283203 53.345 0.0283203 53.1173C0.0283203 52.8896 0.116804 52.6708 0.275093 52.5071C0.433382 52.3434 0.649093 52.2474 0.876694 52.2397H44.1277C44.3553 52.2474 44.571 52.3434 44.7293 52.5071C44.8876 52.6708 44.9761 52.8896 44.9761 53.1173C44.9761 53.345 44.8876 53.5638 44.7293 53.7275C44.571 53.8913 44.3553 53.9871 44.1277 53.9948Z" fill="#FF4521"/>
<path d="M12.1358 48.7279C11.9088 48.7333 11.689 48.6484 11.5246 48.4918C11.3601 48.3353 11.2646 48.1199 11.2588 47.8929V30.2799C11.2696 30.0546 11.3666 29.842 11.5299 29.6863C11.6932 29.5306 11.9102 29.4438 12.1358 29.4438C12.3614 29.4438 12.5783 29.5306 12.7416 29.6863C12.9049 29.842 13.002 30.0546 13.0128 30.2799V47.8949C13.0065 48.1215 12.9107 48.3364 12.7463 48.4926C12.582 48.6487 12.3624 48.7333 12.1358 48.7279Z" fill="#FF4521"/>
<path d="M32.1988 48.7279C31.9718 48.7333 31.752 48.6484 31.5876 48.4918C31.4231 48.3353 31.3275 48.1199 31.3218 47.8929V30.2799C31.3325 30.0546 31.4296 29.842 31.5929 29.6863C31.7562 29.5306 31.9732 29.4438 32.1988 29.4438C32.4244 29.4438 32.6413 29.5306 32.8046 29.6863C32.9679 29.842 33.065 30.0546 33.0758 30.2799V47.8949C33.0695 48.1215 32.9737 48.3364 32.8093 48.4926C32.6449 48.6487 32.4254 48.7333 32.1988 48.7279Z" fill="#FF4521"/>
<path d="M36.6687 48.7279C36.4418 48.7333 36.222 48.6484 36.0575 48.4918C35.8931 48.3353 35.7975 48.1199 35.7917 47.8929V30.2799C35.8025 30.0546 35.8996 29.842 36.0629 29.6863C36.2262 29.5306 36.4431 29.4438 36.6687 29.4438C36.8944 29.4438 37.1113 29.5306 37.2746 29.6863C37.4379 29.842 37.535 30.0546 37.5457 30.2799V47.8949C37.5395 48.1215 37.4437 48.3364 37.2793 48.4926C37.1149 48.6487 36.8954 48.7333 36.6687 48.7279Z" fill="#FF4521"/>
<path d="M22.0698 35.952C21.8825 35.952 21.703 35.8776 21.5706 35.7452C21.4382 35.6128 21.3638 35.4333 21.3638 35.2461V33.546C21.3602 33.451 21.3758 33.3563 21.4097 33.2675C21.4436 33.1786 21.4951 33.0975 21.561 33.0291C21.627 32.9606 21.7061 32.9061 21.7936 32.8689C21.8811 32.8317 21.9752 32.8125 22.0703 32.8125C22.1654 32.8125 22.2595 32.8317 22.347 32.8689C22.4345 32.9061 22.5136 32.9606 22.5795 33.0291C22.6455 33.0975 22.6969 33.1786 22.7308 33.2675C22.7647 33.3563 22.7804 33.451 22.7768 33.546V35.2461C22.7765 35.4334 22.7019 35.613 22.5694 35.7454C22.4368 35.8777 22.2571 35.952 22.0698 35.952Z" fill="#FF4521"/>
<path d="M22.0698 45.05C21.8826 45.0498 21.7032 44.9754 21.5709 44.843C21.4385 44.7107 21.364 44.5312 21.3638 44.344V42.644C21.3602 42.549 21.3758 42.4543 21.4097 42.3655C21.4436 42.2766 21.4951 42.1956 21.561 42.1271C21.627 42.0586 21.7061 42.004 21.7936 41.9668C21.8811 41.9296 21.9752 41.9104 22.0703 41.9104C22.1654 41.9104 22.2595 41.9296 22.347 41.9668C22.4345 42.004 22.5136 42.0586 22.5795 42.1271C22.6455 42.1956 22.6969 42.2766 22.7308 42.3655C22.7647 42.4543 22.7804 42.549 22.7768 42.644V44.344C22.7765 44.5313 22.7019 44.7109 22.5694 44.8433C22.4368 44.9756 22.2571 45.05 22.0698 45.05Z" fill="#FF4521"/>
<path d="M22.4078 43.084C22.1926 43.0838 21.9776 43.0715 21.7638 43.047C21.015 42.9346 20.28 42.7443 19.5708 42.479L19.4318 42.432C19.3438 42.4027 19.2625 42.3564 19.1924 42.2956C19.1223 42.2349 19.0649 42.161 19.0233 42.0781C18.9818 41.9952 18.9571 41.9049 18.9505 41.8124C18.9438 41.7199 18.9555 41.627 18.9848 41.539C19.0141 41.4511 19.0604 41.3696 19.1211 41.2995C19.1819 41.2295 19.2558 41.1721 19.3387 41.1306C19.4216 41.0891 19.5119 41.0643 19.6044 41.0577C19.6969 41.0511 19.7898 41.0627 19.8778 41.092L20.0188 41.138C20.6333 41.3707 21.2699 41.5399 21.9188 41.6431C22.2948 41.7401 22.6896 41.7372 23.0641 41.6346C23.4386 41.532 23.7798 41.3332 24.0538 41.058C24.1231 40.9655 24.1642 40.8549 24.1722 40.7396C24.1802 40.6243 24.1547 40.5092 24.0988 40.4081C23.8545 40.1234 23.5423 39.9049 23.1911 39.7729C22.8399 39.641 22.4611 39.5998 22.0898 39.6531H22.0728C21.4406 39.724 20.801 39.622 20.2222 39.3578C19.6435 39.0936 19.1474 38.6772 18.7868 38.1531C18.6127 37.8266 18.5325 37.4581 18.5553 37.0887C18.5781 36.7194 18.7029 36.3637 18.9158 36.061C19.3342 35.5601 19.8808 35.1823 20.4973 34.9681C21.1138 34.7539 21.777 34.7115 22.4158 34.8451C23.1712 34.9581 23.9126 35.1502 24.6278 35.4181L24.7548 35.4601C24.8457 35.487 24.9303 35.5319 25.0035 35.5921C25.0767 35.6524 25.137 35.7268 25.1809 35.8109C25.2247 35.895 25.2512 35.987 25.2588 36.0815C25.2664 36.176 25.2548 36.2711 25.2249 36.3611C25.195 36.451 25.1473 36.5341 25.0846 36.6052C25.0219 36.6764 24.9456 36.7342 24.8601 36.7753C24.7747 36.8163 24.6818 36.8397 24.5871 36.8441C24.4924 36.8485 24.3977 36.8339 24.3088 36.801L24.1798 36.758C23.558 36.5237 22.914 36.3528 22.2578 36.248C21.8743 36.1499 21.4718 36.1543 21.0905 36.2608C20.7093 36.3674 20.3628 36.5723 20.0858 36.8551C20.0177 36.9451 19.9768 37.0527 19.9679 37.1653C19.9591 37.2778 19.9826 37.3904 20.0358 37.49C20.2298 37.853 20.8658 38.24 22.0738 38.24H22.1128C22.7386 38.1728 23.3709 38.2774 23.9418 38.5426C24.5126 38.8077 25.0004 39.2234 25.3528 39.745C25.529 40.0735 25.6106 40.4446 25.5886 40.8168C25.5665 41.1889 25.4416 41.5476 25.2278 41.853C24.8937 42.2725 24.4621 42.6039 23.9706 42.8185C23.4791 43.033 22.9426 43.1242 22.4078 43.084Z" fill="#FF4521"/>
</svg>
